<mxfile host="app.diagrams.net" modified="2023-11-28T19:15:51.364Z" agent="Mozilla/5.0 (Macintosh; Intel Mac OS X 10_15_7) AppleWebKit/537.36 (KHTML, like Gecko) Chrome/119.0.0.0 Safari/537.36" etag="Xq_Snb5FIXzqTqUp--nr" version="22.1.4" type="github">
  <diagram name="Page-1" id="c4acf3e9-155e-7222-9cf6-157b1a14988f">
    <mxGraphModel dx="2692" dy="920" grid="1" gridSize="10" guides="1" tooltips="1" connect="1" arrows="1" fold="1" page="1" pageScale="1" pageWidth="850" pageHeight="1100" background="none" math="0" shadow="0">
      <root>
        <mxCell id="0" />
        <mxCell id="1" parent="0" />
        <mxCell id="17acba5748e5396b-1" value="model" style="shape=umlFrame;whiteSpace=wrap;html=1;rounded=0;shadow=0;comic=0;labelBackgroundColor=none;strokeWidth=1;fontFamily=Verdana;fontSize=10;align=center;" parent="1" vertex="1">
          <mxGeometry x="-1660" y="30" width="710" height="450" as="geometry" />
        </mxCell>
        <mxCell id="rJny7OtLHx-mFYwjHZUm-91" value="ui" style="shape=umlFrame;whiteSpace=wrap;html=1;rounded=0;shadow=0;comic=0;labelBackgroundColor=none;strokeWidth=1;fontFamily=Verdana;fontSize=10;align=center;width=40;height=30;" parent="1" vertex="1">
          <mxGeometry x="-1660" y="540" width="1310" height="420" as="geometry" />
        </mxCell>
        <mxCell id="rJny7OtLHx-mFYwjHZUm-37" value="persistence" style="shape=umlFrame;whiteSpace=wrap;html=1;rounded=0;shadow=0;comic=0;labelBackgroundColor=none;strokeWidth=1;fontFamily=Verdana;fontSize=10;align=center;width=95;height=30;" parent="1" vertex="1">
          <mxGeometry x="-900" y="30" width="560" height="290" as="geometry" />
        </mxCell>
        <mxCell id="5d2195bd80daf111-8" value="&lt;font style=&quot;font-size: 14px;&quot;&gt;&lt;b&gt;Manager&lt;/b&gt;&lt;/font&gt;" style="html=1;rounded=0;shadow=0;comic=0;labelBackgroundColor=none;strokeWidth=1;fontFamily=Verdana;fontSize=10;align=center;" parent="1" vertex="1">
          <mxGeometry x="-1100" y="150" width="110" height="40" as="geometry" />
        </mxCell>
        <mxCell id="5d2195bd80daf111-9" value="&lt;p style=&quot;margin:0px;margin-top:4px;text-align:center;&quot;&gt;&lt;i&gt;&amp;lt;&amp;lt;enumeration&amp;gt;&amp;gt;&lt;/i&gt;&lt;br&gt;&lt;b&gt;&lt;font style=&quot;font-size: 14px;&quot;&gt;RecordType&lt;/font&gt;&lt;/b&gt;&lt;/p&gt;&lt;p style=&quot;margin:0px;margin-left:4px;&quot;&gt;&lt;br&gt;&lt;/p&gt;&lt;p style=&quot;margin:0px;margin-left:4px;&quot;&gt;&lt;br&gt;&lt;/p&gt;" style="verticalAlign=top;align=left;overflow=fill;fontSize=12;fontFamily=Helvetica;html=1;rounded=0;shadow=0;comic=0;labelBackgroundColor=none;strokeWidth=1" parent="1" vertex="1">
          <mxGeometry x="-1635" y="390" width="140" height="40" as="geometry" />
        </mxCell>
        <mxCell id="5d2195bd80daf111-13" value="&lt;font style=&quot;font-size: 14px;&quot;&gt;&lt;b&gt;Doctor&lt;/b&gt;&lt;/font&gt;" style="html=1;rounded=0;shadow=0;comic=0;labelBackgroundColor=none;strokeWidth=1;fontFamily=Verdana;fontSize=10;align=center;" parent="1" vertex="1">
          <mxGeometry x="-1280" y="230" width="110" height="40" as="geometry" />
        </mxCell>
        <mxCell id="5d2195bd80daf111-14" value="&lt;font style=&quot;font-size: 14px;&quot;&gt;&lt;b&gt;Patient&lt;/b&gt;&lt;/font&gt;" style="html=1;rounded=0;shadow=0;comic=0;labelBackgroundColor=none;strokeWidth=1;fontFamily=Verdana;fontSize=10;align=center;" parent="1" vertex="1">
          <mxGeometry x="-1450" y="290" width="110" height="40" as="geometry" />
        </mxCell>
        <mxCell id="5d2195bd80daf111-17" value="&lt;font style=&quot;font-size: 14px;&quot;&gt;&lt;b&gt;Hospital&lt;/b&gt;&lt;/font&gt;" style="html=1;rounded=0;shadow=0;comic=0;labelBackgroundColor=none;strokeWidth=1;fontFamily=Verdana;fontSize=10;align=center;" parent="1" vertex="1">
          <mxGeometry x="-1280" y="90" width="110" height="45" as="geometry" />
        </mxCell>
        <mxCell id="5d2195bd80daf111-19" value="&lt;p style=&quot;margin:0px;margin-top:4px;text-align:center;&quot;&gt;&lt;i&gt;&amp;lt;&amp;lt;Interface&amp;gt;&amp;gt;&lt;/i&gt;&lt;br&gt;&lt;b&gt;&lt;font style=&quot;font-size: 14px;&quot;&gt;Writable&lt;/font&gt;&lt;/b&gt;&lt;/p&gt;&lt;p style=&quot;margin:0px;margin-left:4px;&quot;&gt;&lt;br&gt;&lt;/p&gt;&lt;p style=&quot;margin:0px;margin-left:4px;&quot;&gt;&lt;br&gt;&lt;/p&gt;" style="verticalAlign=top;align=left;overflow=fill;fontSize=12;fontFamily=Helvetica;html=1;rounded=0;shadow=0;comic=0;labelBackgroundColor=none;strokeWidth=1" parent="1" vertex="1">
          <mxGeometry x="-870" y="230" width="140" height="40" as="geometry" />
        </mxCell>
        <mxCell id="rJny7OtLHx-mFYwjHZUm-1" value="&lt;span style=&quot;font-size: 14px;&quot;&gt;&lt;b&gt;MedicalRecord&lt;/b&gt;&lt;/span&gt;" style="html=1;rounded=0;shadow=0;comic=0;labelBackgroundColor=none;strokeWidth=1;fontFamily=Verdana;fontSize=10;align=center;" parent="1" vertex="1">
          <mxGeometry x="-1340" y="390" width="175" height="40" as="geometry" />
        </mxCell>
        <mxCell id="rJny7OtLHx-mFYwjHZUm-3" value="&lt;span style=&quot;font-size: 14px;&quot;&gt;&lt;b&gt;Event&lt;/b&gt;&lt;/span&gt;" style="html=1;rounded=0;shadow=0;comic=0;labelBackgroundColor=none;strokeWidth=1;fontFamily=Verdana;fontSize=10;align=center;" parent="1" vertex="1">
          <mxGeometry x="-1600" y="270" width="110" height="40" as="geometry" />
        </mxCell>
        <mxCell id="rJny7OtLHx-mFYwjHZUm-4" value="&lt;font style=&quot;font-size: 14px;&quot;&gt;&lt;b&gt;EventLog&lt;br&gt;&lt;/b&gt;&lt;/font&gt;" style="html=1;rounded=0;shadow=0;comic=0;labelBackgroundColor=none;strokeWidth=1;fontFamily=Verdana;fontSize=10;align=center;" parent="1" vertex="1">
          <mxGeometry x="-1610" y="160" width="130" height="40" as="geometry" />
        </mxCell>
        <mxCell id="rJny7OtLHx-mFYwjHZUm-10" value="" style="endArrow=none;html=1;edgeStyle=orthogonalEdgeStyle;rounded=0;exitX=0.5;exitY=0;exitDx=0;exitDy=0;entryX=0.5;entryY=1;entryDx=0;entryDy=0;" parent="1" source="5d2195bd80daf111-13" target="5d2195bd80daf111-17" edge="1">
          <mxGeometry relative="1" as="geometry">
            <mxPoint x="-1870" y="150" as="sourcePoint" />
            <mxPoint x="-1710" y="150" as="targetPoint" />
          </mxGeometry>
        </mxCell>
        <mxCell id="rJny7OtLHx-mFYwjHZUm-11" value="&lt;b&gt;0..*&lt;/b&gt;" style="edgeLabel;resizable=0;html=1;align=left;verticalAlign=bottom;" parent="rJny7OtLHx-mFYwjHZUm-10" connectable="0" vertex="1">
          <mxGeometry x="-1" relative="1" as="geometry">
            <mxPoint x="-15" as="offset" />
          </mxGeometry>
        </mxCell>
        <mxCell id="rJny7OtLHx-mFYwjHZUm-12" value="&lt;b&gt;0..1&lt;/b&gt;" style="edgeLabel;resizable=0;html=1;align=right;verticalAlign=bottom;" parent="rJny7OtLHx-mFYwjHZUm-10" connectable="0" vertex="1">
          <mxGeometry x="1" relative="1" as="geometry">
            <mxPoint x="5" y="20" as="offset" />
          </mxGeometry>
        </mxCell>
        <mxCell id="rJny7OtLHx-mFYwjHZUm-14" value="" style="endArrow=none;html=1;edgeStyle=orthogonalEdgeStyle;rounded=0;exitX=0;exitY=0.5;exitDx=0;exitDy=0;entryX=0.75;entryY=1;entryDx=0;entryDy=0;" parent="1" source="5d2195bd80daf111-8" target="5d2195bd80daf111-17" edge="1">
          <mxGeometry relative="1" as="geometry">
            <mxPoint x="-1780" y="90" as="sourcePoint" />
            <mxPoint x="-1780" y="20" as="targetPoint" />
          </mxGeometry>
        </mxCell>
        <mxCell id="rJny7OtLHx-mFYwjHZUm-15" value="&lt;b&gt;0..1&lt;br&gt;&lt;/b&gt;" style="edgeLabel;resizable=0;html=1;align=left;verticalAlign=bottom;" parent="rJny7OtLHx-mFYwjHZUm-14" connectable="0" vertex="1">
          <mxGeometry x="-1" relative="1" as="geometry">
            <mxPoint x="-30" as="offset" />
          </mxGeometry>
        </mxCell>
        <mxCell id="rJny7OtLHx-mFYwjHZUm-16" value="&lt;b&gt;0..1&lt;/b&gt;" style="edgeLabel;resizable=0;html=1;align=right;verticalAlign=bottom;" parent="rJny7OtLHx-mFYwjHZUm-14" connectable="0" vertex="1">
          <mxGeometry x="1" relative="1" as="geometry">
            <mxPoint x="20" y="16" as="offset" />
          </mxGeometry>
        </mxCell>
        <mxCell id="rJny7OtLHx-mFYwjHZUm-19" value="" style="endArrow=block;endFill=1;html=1;edgeStyle=orthogonalEdgeStyle;align=left;verticalAlign=top;rounded=0;exitX=0.75;exitY=0;exitDx=0;exitDy=0;entryX=0;entryY=0.5;entryDx=0;entryDy=0;" parent="1" source="5d2195bd80daf111-14" target="5d2195bd80daf111-13" edge="1">
          <mxGeometry x="-1" relative="1" as="geometry">
            <mxPoint x="-2030" y="290" as="sourcePoint" />
            <mxPoint x="-1870" y="290" as="targetPoint" />
          </mxGeometry>
        </mxCell>
        <mxCell id="rJny7OtLHx-mFYwjHZUm-20" value="&lt;b&gt;0..1&lt;/b&gt;" style="edgeLabel;resizable=0;html=1;align=left;verticalAlign=bottom;" parent="rJny7OtLHx-mFYwjHZUm-19" connectable="0" vertex="1">
          <mxGeometry x="-1" relative="1" as="geometry">
            <mxPoint x="60" y="-40" as="offset" />
          </mxGeometry>
        </mxCell>
        <mxCell id="rJny7OtLHx-mFYwjHZUm-21" value="" style="endArrow=block;endFill=1;html=1;edgeStyle=orthogonalEdgeStyle;align=left;verticalAlign=top;rounded=0;exitX=0.25;exitY=1;exitDx=0;exitDy=0;entryX=0.5;entryY=0;entryDx=0;entryDy=0;" parent="1" source="5d2195bd80daf111-17" target="5d2195bd80daf111-14" edge="1">
          <mxGeometry x="-1" relative="1" as="geometry">
            <mxPoint x="-2140" y="100" as="sourcePoint" />
            <mxPoint x="-2130" y="160" as="targetPoint" />
          </mxGeometry>
        </mxCell>
        <mxCell id="rJny7OtLHx-mFYwjHZUm-23" value="&lt;b&gt;0..*&lt;/b&gt;" style="endArrow=block;endFill=1;html=1;edgeStyle=orthogonalEdgeStyle;align=left;verticalAlign=top;rounded=0;exitX=1;exitY=0.5;exitDx=0;exitDy=0;entryX=0.5;entryY=0;entryDx=0;entryDy=0;" parent="1" source="5d2195bd80daf111-14" target="rJny7OtLHx-mFYwjHZUm-1" edge="1">
          <mxGeometry x="0.6418" y="-8" relative="1" as="geometry">
            <mxPoint x="-1760" y="390" as="sourcePoint" />
            <mxPoint x="-1600" y="390" as="targetPoint" />
            <mxPoint as="offset" />
          </mxGeometry>
        </mxCell>
        <mxCell id="rJny7OtLHx-mFYwjHZUm-25" value="" style="endArrow=block;endFill=1;html=1;edgeStyle=orthogonalEdgeStyle;align=left;verticalAlign=top;rounded=0;exitX=0;exitY=0.5;exitDx=0;exitDy=0;entryX=1;entryY=0.5;entryDx=0;entryDy=0;" parent="1" source="rJny7OtLHx-mFYwjHZUm-1" target="5d2195bd80daf111-9" edge="1">
          <mxGeometry x="-1" relative="1" as="geometry">
            <mxPoint x="-1760" y="390" as="sourcePoint" />
            <mxPoint x="-1880" y="364.9999999999999" as="targetPoint" />
          </mxGeometry>
        </mxCell>
        <mxCell id="rJny7OtLHx-mFYwjHZUm-26" value="&lt;b&gt;1&lt;/b&gt;" style="edgeLabel;resizable=0;html=1;align=left;verticalAlign=bottom;" parent="rJny7OtLHx-mFYwjHZUm-25" connectable="0" vertex="1">
          <mxGeometry x="-1" relative="1" as="geometry">
            <mxPoint x="-150" as="offset" />
          </mxGeometry>
        </mxCell>
        <mxCell id="rJny7OtLHx-mFYwjHZUm-27" value="&lt;b&gt;0..*&lt;/b&gt;" style="endArrow=block;endFill=1;html=1;edgeStyle=orthogonalEdgeStyle;align=left;verticalAlign=top;rounded=0;exitX=0.5;exitY=1;exitDx=0;exitDy=0;entryX=0.5;entryY=0;entryDx=0;entryDy=0;" parent="1" source="rJny7OtLHx-mFYwjHZUm-4" target="rJny7OtLHx-mFYwjHZUm-3" edge="1">
          <mxGeometry x="0.3333" relative="1" as="geometry">
            <mxPoint x="-1960" y="640" as="sourcePoint" />
            <mxPoint x="-1890" y="560" as="targetPoint" />
            <mxPoint as="offset" />
          </mxGeometry>
        </mxCell>
        <mxCell id="rJny7OtLHx-mFYwjHZUm-29" value="&lt;b&gt;0..*&lt;/b&gt;" style="text;strokeColor=none;align=center;fillColor=none;html=1;verticalAlign=middle;whiteSpace=wrap;rounded=0;" parent="1" vertex="1">
          <mxGeometry x="-1417.5" y="270" width="20" height="10" as="geometry" />
        </mxCell>
        <mxCell id="rJny7OtLHx-mFYwjHZUm-30" value="" style="endArrow=block;dashed=1;endFill=0;endSize=12;html=1;rounded=0;entryX=0.5;entryY=0;entryDx=0;entryDy=0;exitX=1;exitY=0.75;exitDx=0;exitDy=0;" parent="1" source="5d2195bd80daf111-17" target="5d2195bd80daf111-19" edge="1">
          <mxGeometry width="160" relative="1" as="geometry">
            <mxPoint x="-1130" y="113" as="sourcePoint" />
            <mxPoint x="-980" y="260" as="targetPoint" />
            <Array as="points">
              <mxPoint x="-800" y="124" />
            </Array>
          </mxGeometry>
        </mxCell>
        <mxCell id="rJny7OtLHx-mFYwjHZUm-31" value="" style="endArrow=block;dashed=1;endFill=0;endSize=12;html=1;rounded=0;exitX=1;exitY=0.5;exitDx=0;exitDy=0;entryX=0.25;entryY=0;entryDx=0;entryDy=0;" parent="1" source="5d2195bd80daf111-8" target="5d2195bd80daf111-19" edge="1">
          <mxGeometry width="160" relative="1" as="geometry">
            <mxPoint x="-1140" y="260" as="sourcePoint" />
            <mxPoint x="-980" y="260" as="targetPoint" />
            <Array as="points">
              <mxPoint x="-835" y="170" />
            </Array>
          </mxGeometry>
        </mxCell>
        <mxCell id="rJny7OtLHx-mFYwjHZUm-32" value="" style="endArrow=block;dashed=1;endFill=0;endSize=12;html=1;rounded=0;exitX=1;exitY=0.25;exitDx=0;exitDy=0;" parent="1" source="5d2195bd80daf111-13" edge="1">
          <mxGeometry width="160" relative="1" as="geometry">
            <mxPoint x="-1140" y="330" as="sourcePoint" />
            <mxPoint x="-870" y="240" as="targetPoint" />
          </mxGeometry>
        </mxCell>
        <mxCell id="rJny7OtLHx-mFYwjHZUm-33" value="" style="endArrow=block;dashed=1;endFill=0;endSize=12;html=1;rounded=0;exitX=1;exitY=0.25;exitDx=0;exitDy=0;entryX=0.25;entryY=1;entryDx=0;entryDy=0;" parent="1" source="5d2195bd80daf111-14" target="5d2195bd80daf111-19" edge="1">
          <mxGeometry width="160" relative="1" as="geometry">
            <mxPoint x="-1140" y="330" as="sourcePoint" />
            <mxPoint x="-980" y="330" as="targetPoint" />
            <Array as="points">
              <mxPoint x="-835" y="300" />
            </Array>
          </mxGeometry>
        </mxCell>
        <mxCell id="rJny7OtLHx-mFYwjHZUm-34" value="" style="endArrow=block;dashed=1;endFill=0;endSize=12;html=1;rounded=0;exitX=1;exitY=0.5;exitDx=0;exitDy=0;entryX=0.5;entryY=1;entryDx=0;entryDy=0;" parent="1" source="rJny7OtLHx-mFYwjHZUm-1" target="5d2195bd80daf111-19" edge="1">
          <mxGeometry width="160" relative="1" as="geometry">
            <mxPoint x="-1140" y="330" as="sourcePoint" />
            <mxPoint x="-980" y="330" as="targetPoint" />
            <Array as="points">
              <mxPoint x="-800" y="410" />
            </Array>
          </mxGeometry>
        </mxCell>
        <mxCell id="rJny7OtLHx-mFYwjHZUm-35" value="&lt;font style=&quot;font-size: 14px;&quot;&gt;&lt;b&gt;JsonReader&lt;br&gt;&lt;/b&gt;&lt;/font&gt;" style="html=1;rounded=0;shadow=0;comic=0;labelBackgroundColor=none;strokeWidth=1;fontFamily=Verdana;fontSize=10;align=center;" parent="1" vertex="1">
          <mxGeometry x="-690" y="230" width="130" height="40" as="geometry" />
        </mxCell>
        <mxCell id="rJny7OtLHx-mFYwjHZUm-36" value="&lt;font style=&quot;font-size: 14px;&quot;&gt;&lt;b&gt;JsonWriter&lt;/b&gt;&lt;/font&gt;" style="html=1;rounded=0;shadow=0;comic=0;labelBackgroundColor=none;strokeWidth=1;fontFamily=Verdana;fontSize=10;align=center;" parent="1" vertex="1">
          <mxGeometry x="-520" y="230" width="130" height="40" as="geometry" />
        </mxCell>
        <mxCell id="rJny7OtLHx-mFYwjHZUm-38" value="&lt;span style=&quot;font-size: 14px;&quot;&gt;&lt;b&gt;InPatientSystem&lt;/b&gt;&lt;/span&gt;" style="html=1;rounded=0;shadow=0;comic=0;labelBackgroundColor=none;strokeWidth=1;fontFamily=Verdana;fontSize=10;align=center;" parent="1" vertex="1">
          <mxGeometry x="-780" y="550" width="175" height="40" as="geometry" />
        </mxCell>
        <mxCell id="rJny7OtLHx-mFYwjHZUm-39" value="&lt;span style=&quot;font-size: 14px;&quot;&gt;&lt;b&gt;PatientSystemGUI&lt;/b&gt;&lt;/span&gt;" style="html=1;rounded=0;shadow=0;comic=0;labelBackgroundColor=none;strokeWidth=1;fontFamily=Verdana;fontSize=10;align=center;" parent="1" vertex="1">
          <mxGeometry x="-570" y="890" width="175" height="40" as="geometry" />
        </mxCell>
        <mxCell id="rJny7OtLHx-mFYwjHZUm-40" value="&lt;span style=&quot;font-size: 14px;&quot;&gt;&lt;b&gt;FrameConstructor&lt;/b&gt;&lt;/span&gt;" style="html=1;rounded=0;shadow=0;comic=0;labelBackgroundColor=none;strokeWidth=1;fontFamily=Verdana;fontSize=10;align=center;" parent="1" vertex="1">
          <mxGeometry x="-1250" y="900" width="220" height="40" as="geometry" />
        </mxCell>
        <mxCell id="rJny7OtLHx-mFYwjHZUm-41" value="&lt;span style=&quot;font-size: 14px;&quot;&gt;&lt;b&gt;SetUpPage&lt;br&gt;&lt;/b&gt;&lt;/span&gt;" style="html=1;rounded=0;shadow=0;comic=0;labelBackgroundColor=none;strokeWidth=1;fontFamily=Verdana;fontSize=10;align=center;" parent="1" vertex="1">
          <mxGeometry x="-650" y="750" width="130" height="40" as="geometry" />
        </mxCell>
        <mxCell id="rJny7OtLHx-mFYwjHZUm-42" value="&lt;span style=&quot;font-size: 14px;&quot;&gt;&lt;b&gt;WelcomePage&lt;/b&gt;&lt;/span&gt;" style="html=1;rounded=0;shadow=0;comic=0;labelBackgroundColor=none;strokeWidth=1;fontFamily=Verdana;fontSize=10;align=center;" parent="1" vertex="1">
          <mxGeometry x="-1635" y="600" width="160" height="40" as="geometry" />
        </mxCell>
        <mxCell id="rJny7OtLHx-mFYwjHZUm-43" value="&lt;span style=&quot;font-size: 14px;&quot;&gt;&lt;b&gt;SavePage&lt;/b&gt;&lt;/span&gt;" style="html=1;rounded=0;shadow=0;comic=0;labelBackgroundColor=none;strokeWidth=1;fontFamily=Verdana;fontSize=10;align=center;" parent="1" vertex="1">
          <mxGeometry x="-520" y="830" width="130" height="40" as="geometry" />
        </mxCell>
        <mxCell id="rJny7OtLHx-mFYwjHZUm-44" value="&lt;span style=&quot;font-size: 14px;&quot;&gt;&lt;b&gt;DoctorMainPage&lt;/b&gt;&lt;/span&gt;" style="html=1;rounded=0;shadow=0;comic=0;labelBackgroundColor=none;strokeWidth=1;fontFamily=Verdana;fontSize=10;align=center;" parent="1" vertex="1">
          <mxGeometry x="-980" y="550" width="175" height="40" as="geometry" />
        </mxCell>
        <mxCell id="rJny7OtLHx-mFYwjHZUm-45" value="&lt;span style=&quot;font-size: 14px;&quot;&gt;&lt;b&gt;ManagerMainPage&lt;/b&gt;&lt;/span&gt;" style="html=1;rounded=0;shadow=0;comic=0;labelBackgroundColor=none;strokeWidth=1;fontFamily=Verdana;fontSize=10;align=center;" parent="1" vertex="1">
          <mxGeometry x="-970" y="620" width="175" height="40" as="geometry" />
        </mxCell>
        <mxCell id="rJny7OtLHx-mFYwjHZUm-46" value="&lt;span style=&quot;font-size: 14px;&quot;&gt;&lt;b&gt;PatientList&lt;br&gt;&lt;/b&gt;&lt;/span&gt;" style="html=1;rounded=0;shadow=0;comic=0;labelBackgroundColor=none;strokeWidth=1;fontFamily=Verdana;fontSize=10;align=center;" parent="1" vertex="1">
          <mxGeometry x="-1160" y="560" width="130" height="40" as="geometry" />
        </mxCell>
        <mxCell id="rJny7OtLHx-mFYwjHZUm-47" value="&lt;span style=&quot;font-size: 14px;&quot;&gt;&lt;b&gt;CurrentPatient&lt;/b&gt;&lt;/span&gt;" style="html=1;rounded=0;shadow=0;comic=0;labelBackgroundColor=none;strokeWidth=1;fontFamily=Verdana;fontSize=10;align=center;" parent="1" vertex="1">
          <mxGeometry x="-1453" y="630" width="153" height="40" as="geometry" />
        </mxCell>
        <mxCell id="rJny7OtLHx-mFYwjHZUm-48" value="&lt;span style=&quot;font-size: 14px;&quot;&gt;&lt;b&gt;MedicalRecordDisplay&lt;/b&gt;&lt;/span&gt;" style="html=1;rounded=0;shadow=0;comic=0;labelBackgroundColor=none;strokeWidth=1;fontFamily=Verdana;fontSize=10;align=center;" parent="1" vertex="1">
          <mxGeometry x="-1300" y="760" width="200" height="40" as="geometry" />
        </mxCell>
        <mxCell id="rJny7OtLHx-mFYwjHZUm-49" value="&lt;span style=&quot;font-size: 14px;&quot;&gt;&lt;b&gt;TextEditor&lt;/b&gt;&lt;/span&gt;" style="html=1;rounded=0;shadow=0;comic=0;labelBackgroundColor=none;strokeWidth=1;fontFamily=Verdana;fontSize=10;align=center;" parent="1" vertex="1">
          <mxGeometry x="-1360" y="690" width="130" height="40" as="geometry" />
        </mxCell>
        <mxCell id="rJny7OtLHx-mFYwjHZUm-50" value="" style="endArrow=block;endFill=1;html=1;edgeStyle=orthogonalEdgeStyle;align=left;verticalAlign=top;rounded=0;exitX=1;exitY=0.25;exitDx=0;exitDy=0;entryX=0;entryY=0.5;entryDx=0;entryDy=0;" parent="1" source="rJny7OtLHx-mFYwjHZUm-42" target="5d2195bd80daf111-17" edge="1">
          <mxGeometry x="-1" relative="1" as="geometry">
            <mxPoint x="-1450" y="440" as="sourcePoint" />
            <mxPoint x="-1290" y="440" as="targetPoint" />
            <Array as="points">
              <mxPoint x="-1460" y="610" />
              <mxPoint x="-1460" y="113" />
            </Array>
          </mxGeometry>
        </mxCell>
        <mxCell id="rJny7OtLHx-mFYwjHZUm-51" value="&lt;b&gt;1&lt;/b&gt;" style="edgeLabel;resizable=0;html=1;align=left;verticalAlign=bottom;" parent="rJny7OtLHx-mFYwjHZUm-50" connectable="0" vertex="1">
          <mxGeometry x="-1" relative="1" as="geometry">
            <mxPoint x="175" y="-457" as="offset" />
          </mxGeometry>
        </mxCell>
        <mxCell id="rJny7OtLHx-mFYwjHZUm-52" value="&lt;b&gt;1&lt;/b&gt;" style="endArrow=block;endFill=1;html=1;edgeStyle=orthogonalEdgeStyle;align=left;verticalAlign=top;rounded=0;exitX=0.25;exitY=0;exitDx=0;exitDy=0;entryX=0.5;entryY=1;entryDx=0;entryDy=0;" parent="1" source="rJny7OtLHx-mFYwjHZUm-44" target="5d2195bd80daf111-13" edge="1">
          <mxGeometry x="1" y="-5" relative="1" as="geometry">
            <mxPoint x="-1100" y="330" as="sourcePoint" />
            <mxPoint x="-940" y="330" as="targetPoint" />
            <Array as="points">
              <mxPoint x="-1225" y="330" />
            </Array>
            <mxPoint as="offset" />
          </mxGeometry>
        </mxCell>
        <mxCell id="rJny7OtLHx-mFYwjHZUm-56" value="&lt;b&gt;1&lt;/b&gt;" style="endArrow=block;endFill=1;html=1;edgeStyle=orthogonalEdgeStyle;align=left;verticalAlign=top;rounded=0;entryX=0.75;entryY=1;entryDx=0;entryDy=0;exitX=0;exitY=0.5;exitDx=0;exitDy=0;" parent="1" source="rJny7OtLHx-mFYwjHZUm-45" target="5d2195bd80daf111-8" edge="1">
          <mxGeometry x="1" y="-5" relative="1" as="geometry">
            <mxPoint x="-980" y="650" as="sourcePoint" />
            <mxPoint x="-1215" y="280" as="targetPoint" />
            <Array as="points" />
            <mxPoint as="offset" />
          </mxGeometry>
        </mxCell>
        <mxCell id="rJny7OtLHx-mFYwjHZUm-58" value="&lt;b&gt;1&lt;/b&gt;" style="endArrow=block;endFill=1;html=1;edgeStyle=orthogonalEdgeStyle;align=left;verticalAlign=top;rounded=0;entryX=0.25;entryY=1;entryDx=0;entryDy=0;exitX=0.202;exitY=0.03;exitDx=0;exitDy=0;exitPerimeter=0;" parent="1" source="rJny7OtLHx-mFYwjHZUm-47" target="5d2195bd80daf111-14" edge="1">
          <mxGeometry x="1" y="18" relative="1" as="geometry">
            <mxPoint x="-1400" y="570" as="sourcePoint" />
            <mxPoint x="-1132" y="200" as="targetPoint" />
            <Array as="points">
              <mxPoint x="-1422" y="450" />
            </Array>
            <mxPoint x="1" as="offset" />
          </mxGeometry>
        </mxCell>
        <mxCell id="rJny7OtLHx-mFYwjHZUm-60" value="" style="endArrow=block;endFill=1;html=1;edgeStyle=orthogonalEdgeStyle;align=left;verticalAlign=top;rounded=0;exitX=0.106;exitY=0.003;exitDx=0;exitDy=0;exitPerimeter=0;" parent="1" source="rJny7OtLHx-mFYwjHZUm-46" edge="1">
          <mxGeometry x="-1" relative="1" as="geometry">
            <mxPoint x="-1160" y="520" as="sourcePoint" />
            <mxPoint x="-1370" y="330" as="targetPoint" />
            <Array as="points">
              <mxPoint x="-1146" y="460" />
              <mxPoint x="-1370" y="460" />
            </Array>
          </mxGeometry>
        </mxCell>
        <mxCell id="rJny7OtLHx-mFYwjHZUm-61" value="&lt;b&gt;0..*&lt;/b&gt;" style="edgeLabel;resizable=0;html=1;align=left;verticalAlign=bottom;" parent="rJny7OtLHx-mFYwjHZUm-60" connectable="0" vertex="1">
          <mxGeometry x="-1" relative="1" as="geometry">
            <mxPoint x="-244" y="-210" as="offset" />
          </mxGeometry>
        </mxCell>
        <mxCell id="rJny7OtLHx-mFYwjHZUm-62" value="" style="endArrow=block;endFill=1;html=1;edgeStyle=orthogonalEdgeStyle;align=left;verticalAlign=top;rounded=0;exitX=0.25;exitY=0;exitDx=0;exitDy=0;entryX=1;entryY=0.5;entryDx=0;entryDy=0;" parent="1" source="rJny7OtLHx-mFYwjHZUm-46" target="5d2195bd80daf111-13" edge="1">
          <mxGeometry x="-1" relative="1" as="geometry">
            <mxPoint x="-1080" y="700" as="sourcePoint" />
            <mxPoint x="-993" y="660" as="targetPoint" />
          </mxGeometry>
        </mxCell>
        <mxCell id="rJny7OtLHx-mFYwjHZUm-63" value="&lt;b&gt;0..1&lt;/b&gt;" style="edgeLabel;resizable=0;html=1;align=left;verticalAlign=bottom;" parent="rJny7OtLHx-mFYwjHZUm-62" connectable="0" vertex="1">
          <mxGeometry x="-1" relative="1" as="geometry">
            <mxPoint x="-32" y="-300" as="offset" />
          </mxGeometry>
        </mxCell>
        <mxCell id="rJny7OtLHx-mFYwjHZUm-65" value="" style="endArrow=block;endFill=1;html=1;edgeStyle=orthogonalEdgeStyle;align=left;verticalAlign=top;rounded=0;exitX=0.883;exitY=-0.022;exitDx=0;exitDy=0;entryX=0.5;entryY=1;entryDx=0;entryDy=0;exitPerimeter=0;" parent="1" source="rJny7OtLHx-mFYwjHZUm-46" target="5d2195bd80daf111-8" edge="1">
          <mxGeometry x="-1" relative="1" as="geometry">
            <mxPoint x="-1100" y="660" as="sourcePoint" />
            <mxPoint x="-1170" y="350" as="targetPoint" />
          </mxGeometry>
        </mxCell>
        <mxCell id="rJny7OtLHx-mFYwjHZUm-66" value="&lt;b&gt;0..1&lt;/b&gt;" style="edgeLabel;resizable=0;html=1;align=left;verticalAlign=bottom;" parent="rJny7OtLHx-mFYwjHZUm-65" connectable="0" vertex="1">
          <mxGeometry x="-1" relative="1" as="geometry">
            <mxPoint x="-10" y="-340" as="offset" />
          </mxGeometry>
        </mxCell>
        <mxCell id="rJny7OtLHx-mFYwjHZUm-67" value="" style="endArrow=block;endFill=1;html=1;edgeStyle=orthogonalEdgeStyle;align=left;verticalAlign=top;rounded=0;exitX=0.4;exitY=0;exitDx=0;exitDy=0;entryX=1;entryY=0.5;entryDx=0;entryDy=0;exitPerimeter=0;" parent="1" source="rJny7OtLHx-mFYwjHZUm-38" target="5d2195bd80daf111-17" edge="1">
          <mxGeometry relative="1" as="geometry">
            <mxPoint x="-710" y="550" as="sourcePoint" />
            <mxPoint x="-1110" y="101" as="targetPoint" />
          </mxGeometry>
        </mxCell>
        <mxCell id="rJny7OtLHx-mFYwjHZUm-68" value="&lt;b&gt;0..1&lt;/b&gt;" style="edgeLabel;resizable=0;html=1;align=left;verticalAlign=bottom;" parent="rJny7OtLHx-mFYwjHZUm-67" connectable="0" vertex="1">
          <mxGeometry x="-1" relative="1" as="geometry">
            <mxPoint x="-450" y="-430" as="offset" />
          </mxGeometry>
        </mxCell>
        <mxCell id="rJny7OtLHx-mFYwjHZUm-69" value="" style="endArrow=block;endFill=1;html=1;edgeStyle=orthogonalEdgeStyle;align=left;verticalAlign=top;rounded=0;" parent="1" edge="1">
          <mxGeometry x="-1" relative="1" as="geometry">
            <mxPoint x="-1220" y="760" as="sourcePoint" />
            <mxPoint x="-1220" y="430" as="targetPoint" />
            <Array as="points">
              <mxPoint x="-1220" y="430" />
            </Array>
          </mxGeometry>
        </mxCell>
        <mxCell id="rJny7OtLHx-mFYwjHZUm-70" value="&lt;b&gt;0..*&lt;/b&gt;" style="edgeLabel;resizable=0;html=1;align=left;verticalAlign=bottom;" parent="rJny7OtLHx-mFYwjHZUm-69" connectable="0" vertex="1">
          <mxGeometry x="-1" relative="1" as="geometry">
            <mxPoint x="-25" y="-310" as="offset" />
          </mxGeometry>
        </mxCell>
        <mxCell id="rJny7OtLHx-mFYwjHZUm-72" value="" style="endArrow=block;endFill=1;html=1;edgeStyle=orthogonalEdgeStyle;align=left;verticalAlign=top;rounded=0;" parent="1" edge="1">
          <mxGeometry x="-1" relative="1" as="geometry">
            <mxPoint x="-1280" y="690" as="sourcePoint" />
            <mxPoint x="-1280" y="430" as="targetPoint" />
            <Array as="points">
              <mxPoint x="-1280" y="690" />
              <mxPoint x="-1280" y="430" />
            </Array>
          </mxGeometry>
        </mxCell>
        <mxCell id="rJny7OtLHx-mFYwjHZUm-73" value="&lt;b&gt;1&lt;/b&gt;" style="edgeLabel;resizable=0;html=1;align=left;verticalAlign=bottom;" parent="rJny7OtLHx-mFYwjHZUm-72" connectable="0" vertex="1">
          <mxGeometry x="-1" relative="1" as="geometry">
            <mxPoint x="-18" y="-240" as="offset" />
          </mxGeometry>
        </mxCell>
        <mxCell id="rJny7OtLHx-mFYwjHZUm-74" value="&lt;b&gt;1&lt;/b&gt;" style="endArrow=block;endFill=1;html=1;edgeStyle=orthogonalEdgeStyle;align=left;verticalAlign=top;rounded=0;exitX=0.75;exitY=0;exitDx=0;exitDy=0;" parent="1" source="rJny7OtLHx-mFYwjHZUm-38" edge="1">
          <mxGeometry x="1" y="18" relative="1" as="geometry">
            <mxPoint x="-630" y="550" as="sourcePoint" />
            <mxPoint x="-650" y="270" as="targetPoint" />
            <Array as="points">
              <mxPoint x="-650" y="550" />
            </Array>
            <mxPoint x="1" as="offset" />
          </mxGeometry>
        </mxCell>
        <mxCell id="rJny7OtLHx-mFYwjHZUm-75" value="&lt;b&gt;1&lt;/b&gt;" style="endArrow=block;endFill=1;html=1;edgeStyle=orthogonalEdgeStyle;align=left;verticalAlign=top;rounded=0;entryX=0.25;entryY=1;entryDx=0;entryDy=0;exitX=1;exitY=0.25;exitDx=0;exitDy=0;" parent="1" source="rJny7OtLHx-mFYwjHZUm-38" target="rJny7OtLHx-mFYwjHZUm-36" edge="1">
          <mxGeometry x="1" y="13" relative="1" as="geometry">
            <mxPoint x="-520" y="440" as="sourcePoint" />
            <mxPoint x="-520" y="209" as="targetPoint" />
            <Array as="points">
              <mxPoint x="-487" y="560" />
              <mxPoint x="-487" y="360" />
            </Array>
            <mxPoint x="1" as="offset" />
          </mxGeometry>
        </mxCell>
        <mxCell id="rJny7OtLHx-mFYwjHZUm-76" value="&lt;b&gt;0..1&lt;/b&gt;" style="endArrow=block;endFill=1;html=1;edgeStyle=orthogonalEdgeStyle;align=left;verticalAlign=top;rounded=0;exitX=0.5;exitY=0;exitDx=0;exitDy=0;entryX=0.5;entryY=1;entryDx=0;entryDy=0;" parent="1" source="rJny7OtLHx-mFYwjHZUm-43" target="rJny7OtLHx-mFYwjHZUm-36" edge="1">
          <mxGeometry x="1" y="15" relative="1" as="geometry">
            <mxPoint x="-380" y="380" as="sourcePoint" />
            <mxPoint x="-450" y="290" as="targetPoint" />
            <Array as="points">
              <mxPoint x="-455" y="550" />
              <mxPoint x="-455" y="550" />
            </Array>
            <mxPoint as="offset" />
          </mxGeometry>
        </mxCell>
        <mxCell id="rJny7OtLHx-mFYwjHZUm-81" value="" style="endArrow=block;endSize=16;endFill=0;html=1;rounded=0;exitX=0.5;exitY=1;exitDx=0;exitDy=0;entryX=0;entryY=0.75;entryDx=0;entryDy=0;" parent="1" source="rJny7OtLHx-mFYwjHZUm-42" target="rJny7OtLHx-mFYwjHZUm-40" edge="1">
          <mxGeometry width="160" relative="1" as="geometry">
            <mxPoint x="-1520" y="800" as="sourcePoint" />
            <mxPoint x="-1360" y="800" as="targetPoint" />
            <Array as="points">
              <mxPoint x="-1555" y="880" />
            </Array>
          </mxGeometry>
        </mxCell>
        <mxCell id="rJny7OtLHx-mFYwjHZUm-82" value="" style="endArrow=block;endSize=16;endFill=0;html=1;rounded=0;exitX=0.5;exitY=1;exitDx=0;exitDy=0;entryX=0;entryY=0.5;entryDx=0;entryDy=0;" parent="1" source="rJny7OtLHx-mFYwjHZUm-47" target="rJny7OtLHx-mFYwjHZUm-40" edge="1">
          <mxGeometry width="160" relative="1" as="geometry">
            <mxPoint x="-1480" y="770" as="sourcePoint" />
            <mxPoint x="-1160" y="1050" as="targetPoint" />
            <Array as="points">
              <mxPoint x="-1376" y="870" />
            </Array>
          </mxGeometry>
        </mxCell>
        <mxCell id="rJny7OtLHx-mFYwjHZUm-83" value="" style="endArrow=block;endSize=16;endFill=0;html=1;rounded=0;exitX=0.25;exitY=1;exitDx=0;exitDy=0;entryX=0;entryY=0.25;entryDx=0;entryDy=0;" parent="1" source="rJny7OtLHx-mFYwjHZUm-49" target="rJny7OtLHx-mFYwjHZUm-40" edge="1">
          <mxGeometry width="160" relative="1" as="geometry">
            <mxPoint x="-1330" y="940" as="sourcePoint" />
            <mxPoint x="-1234" y="1210" as="targetPoint" />
            <Array as="points">
              <mxPoint x="-1326" y="860" />
            </Array>
          </mxGeometry>
        </mxCell>
        <mxCell id="rJny7OtLHx-mFYwjHZUm-84" value="" style="endArrow=block;endSize=16;endFill=0;html=1;rounded=0;exitX=0.5;exitY=1;exitDx=0;exitDy=0;entryX=0.25;entryY=0;entryDx=0;entryDy=0;" parent="1" source="rJny7OtLHx-mFYwjHZUm-48" target="rJny7OtLHx-mFYwjHZUm-40" edge="1">
          <mxGeometry width="160" relative="1" as="geometry">
            <mxPoint x="-1430" y="730" as="sourcePoint" />
            <mxPoint x="-1270" y="730" as="targetPoint" />
          </mxGeometry>
        </mxCell>
        <mxCell id="rJny7OtLHx-mFYwjHZUm-85" value="" style="endArrow=block;endSize=16;endFill=0;html=1;rounded=0;exitX=0.75;exitY=1;exitDx=0;exitDy=0;entryX=0.669;entryY=0.019;entryDx=0;entryDy=0;entryPerimeter=0;" parent="1" source="rJny7OtLHx-mFYwjHZUm-46" target="rJny7OtLHx-mFYwjHZUm-40" edge="1">
          <mxGeometry width="160" relative="1" as="geometry">
            <mxPoint x="-980" y="830" as="sourcePoint" />
            <mxPoint x="-966" y="930" as="targetPoint" />
            <Array as="points" />
          </mxGeometry>
        </mxCell>
        <mxCell id="rJny7OtLHx-mFYwjHZUm-86" value="" style="endArrow=block;endSize=16;endFill=0;html=1;rounded=0;exitX=0;exitY=0.5;exitDx=0;exitDy=0;entryX=0.75;entryY=0;entryDx=0;entryDy=0;" parent="1" source="rJny7OtLHx-mFYwjHZUm-44" target="rJny7OtLHx-mFYwjHZUm-40" edge="1">
          <mxGeometry width="160" relative="1" as="geometry">
            <mxPoint x="-990" y="760" as="sourcePoint" />
            <mxPoint x="-1140" y="900" as="targetPoint" />
          </mxGeometry>
        </mxCell>
        <mxCell id="rJny7OtLHx-mFYwjHZUm-87" value="" style="endArrow=block;endSize=16;endFill=0;html=1;rounded=0;exitX=0.25;exitY=1;exitDx=0;exitDy=0;entryX=0.883;entryY=0.013;entryDx=0;entryDy=0;entryPerimeter=0;" parent="1" source="rJny7OtLHx-mFYwjHZUm-45" target="rJny7OtLHx-mFYwjHZUm-40" edge="1">
          <mxGeometry width="160" relative="1" as="geometry">
            <mxPoint x="-910" y="740" as="sourcePoint" />
            <mxPoint x="-896" y="840" as="targetPoint" />
          </mxGeometry>
        </mxCell>
        <mxCell id="rJny7OtLHx-mFYwjHZUm-88" value="" style="endArrow=block;endSize=16;endFill=0;html=1;rounded=0;exitX=0;exitY=0.5;exitDx=0;exitDy=0;entryX=1;entryY=0.25;entryDx=0;entryDy=0;" parent="1" source="rJny7OtLHx-mFYwjHZUm-41" target="rJny7OtLHx-mFYwjHZUm-40" edge="1">
          <mxGeometry width="160" relative="1" as="geometry">
            <mxPoint x="-440" y="490" as="sourcePoint" />
            <mxPoint x="-426" y="590" as="targetPoint" />
          </mxGeometry>
        </mxCell>
        <mxCell id="rJny7OtLHx-mFYwjHZUm-89" value="&lt;b&gt;0...1&lt;/b&gt;" style="endArrow=block;endFill=1;html=1;edgeStyle=orthogonalEdgeStyle;align=left;verticalAlign=top;rounded=0;exitX=0.5;exitY=0;exitDx=0;exitDy=0;" parent="1" source="rJny7OtLHx-mFYwjHZUm-41" edge="1">
          <mxGeometry x="1" y="18" relative="1" as="geometry">
            <mxPoint x="-560" y="400" as="sourcePoint" />
            <mxPoint x="-585" y="270" as="targetPoint" />
            <Array as="points">
              <mxPoint x="-585" y="270" />
            </Array>
            <mxPoint x="1" as="offset" />
          </mxGeometry>
        </mxCell>
        <mxCell id="rJny7OtLHx-mFYwjHZUm-90" value="" style="endArrow=block;endSize=16;endFill=0;html=1;rounded=0;exitX=0;exitY=0.5;exitDx=0;exitDy=0;entryX=1;entryY=0.75;entryDx=0;entryDy=0;" parent="1" source="rJny7OtLHx-mFYwjHZUm-43" target="rJny7OtLHx-mFYwjHZUm-40" edge="1">
          <mxGeometry width="160" relative="1" as="geometry">
            <mxPoint x="-620" y="830" as="sourcePoint" />
            <mxPoint x="-1000" y="1020" as="targetPoint" />
          </mxGeometry>
        </mxCell>
        <mxCell id="8Dgv4uAc7_hTq7BhHDLh-5" value="" style="endArrow=block;endFill=1;html=1;edgeStyle=orthogonalEdgeStyle;align=left;verticalAlign=top;rounded=0;exitX=0;exitY=0.5;exitDx=0;exitDy=0;entryX=0.5;entryY=0;entryDx=0;entryDy=0;" edge="1" parent="1" source="rJny7OtLHx-mFYwjHZUm-4" target="rJny7OtLHx-mFYwjHZUm-4">
          <mxGeometry x="0.8192" y="13" relative="1" as="geometry">
            <mxPoint x="-1280" y="470" as="sourcePoint" />
            <mxPoint x="-1120" y="470" as="targetPoint" />
            <Array as="points">
              <mxPoint x="-1630" y="180" />
              <mxPoint x="-1630" y="120" />
              <mxPoint x="-1545" y="120" />
            </Array>
            <mxPoint x="1" as="offset" />
          </mxGeometry>
        </mxCell>
        <mxCell id="8Dgv4uAc7_hTq7BhHDLh-6" value="1" style="edgeLabel;resizable=0;html=1;align=left;verticalAlign=bottom;" connectable="0" vertex="1" parent="8Dgv4uAc7_hTq7BhHDLh-5">
          <mxGeometry x="-1" relative="1" as="geometry">
            <mxPoint x="70" y="-30" as="offset" />
          </mxGeometry>
        </mxCell>
        <mxCell id="8Dgv4uAc7_hTq7BhHDLh-9" value="" style="endArrow=block;endFill=1;html=1;edgeStyle=orthogonalEdgeStyle;align=left;verticalAlign=top;rounded=0;exitX=0.75;exitY=0;exitDx=0;exitDy=0;entryX=1;entryY=0.25;entryDx=0;entryDy=0;" edge="1" parent="1" source="rJny7OtLHx-mFYwjHZUm-41" target="5d2195bd80daf111-17">
          <mxGeometry relative="1" as="geometry">
            <mxPoint x="-600" y="60" as="sourcePoint" />
            <mxPoint x="-1090" y="-190" as="targetPoint" />
          </mxGeometry>
        </mxCell>
        <mxCell id="8Dgv4uAc7_hTq7BhHDLh-11" value="&lt;b&gt;0..1&lt;/b&gt;" style="edgeLabel;resizable=0;html=1;align=left;verticalAlign=bottom;" connectable="0" vertex="1" parent="1">
          <mxGeometry x="-1160" y="100" as="geometry" />
        </mxCell>
        <mxCell id="8Dgv4uAc7_hTq7BhHDLh-12" value="" style="endArrow=block;endFill=1;html=1;edgeStyle=orthogonalEdgeStyle;align=left;verticalAlign=top;rounded=0;" edge="1" parent="1">
          <mxGeometry x="-1" relative="1" as="geometry">
            <mxPoint x="-1360" y="630" as="sourcePoint" />
            <mxPoint x="-1280" y="260" as="targetPoint" />
            <Array as="points">
              <mxPoint x="-1360" y="360" />
              <mxPoint x="-1320" y="360" />
              <mxPoint x="-1320" y="260" />
            </Array>
          </mxGeometry>
        </mxCell>
        <mxCell id="8Dgv4uAc7_hTq7BhHDLh-13" value="&lt;b&gt;0..1&lt;/b&gt;" style="edgeLabel;resizable=0;html=1;align=left;verticalAlign=bottom;" connectable="0" vertex="1" parent="8Dgv4uAc7_hTq7BhHDLh-12">
          <mxGeometry x="-1" relative="1" as="geometry">
            <mxPoint x="72" y="-280" as="offset" />
          </mxGeometry>
        </mxCell>
        <mxCell id="8Dgv4uAc7_hTq7BhHDLh-14" value="" style="endArrow=block;endFill=1;html=1;edgeStyle=orthogonalEdgeStyle;align=left;verticalAlign=top;rounded=0;exitX=0.711;exitY=0.003;exitDx=0;exitDy=0;entryX=0.25;entryY=1;entryDx=0;entryDy=0;exitPerimeter=0;" edge="1" parent="1" source="rJny7OtLHx-mFYwjHZUm-47" target="5d2195bd80daf111-8">
          <mxGeometry x="-1" relative="1" as="geometry">
            <mxPoint x="-1320" y="500" as="sourcePoint" />
            <mxPoint x="-1233" y="460" as="targetPoint" />
            <Array as="points">
              <mxPoint x="-1344" y="500" />
              <mxPoint x="-1072" y="500" />
            </Array>
          </mxGeometry>
        </mxCell>
        <mxCell id="8Dgv4uAc7_hTq7BhHDLh-15" value="&lt;b&gt;0..1&lt;/b&gt;" style="edgeLabel;resizable=0;html=1;align=left;verticalAlign=bottom;" connectable="0" vertex="1" parent="8Dgv4uAc7_hTq7BhHDLh-14">
          <mxGeometry x="-1" relative="1" as="geometry">
            <mxPoint x="249" y="-420" as="offset" />
          </mxGeometry>
        </mxCell>
        <mxCell id="8Dgv4uAc7_hTq7BhHDLh-16" value="" style="endArrow=block;endFill=1;html=1;edgeStyle=orthogonalEdgeStyle;align=left;verticalAlign=top;rounded=0;exitX=0.5;exitY=0;exitDx=0;exitDy=0;entryX=0.25;entryY=1;entryDx=0;entryDy=0;" edge="1" parent="1" source="rJny7OtLHx-mFYwjHZUm-48" target="5d2195bd80daf111-9">
          <mxGeometry x="-1" relative="1" as="geometry">
            <mxPoint x="-1540" y="490" as="sourcePoint" />
            <mxPoint x="-1540" y="290" as="targetPoint" />
            <Array as="points">
              <mxPoint x="-1200" y="520" />
              <mxPoint x="-1600" y="520" />
            </Array>
          </mxGeometry>
        </mxCell>
        <mxCell id="8Dgv4uAc7_hTq7BhHDLh-17" value="&lt;b&gt;1&lt;/b&gt;" style="edgeLabel;resizable=0;html=1;align=left;verticalAlign=bottom;" connectable="0" vertex="1" parent="8Dgv4uAc7_hTq7BhHDLh-16">
          <mxGeometry x="-1" relative="1" as="geometry">
            <mxPoint x="-413" y="-310" as="offset" />
          </mxGeometry>
        </mxCell>
        <mxCell id="8Dgv4uAc7_hTq7BhHDLh-18" value="&lt;b&gt;1&lt;/b&gt;" style="endArrow=block;endFill=1;html=1;edgeStyle=orthogonalEdgeStyle;align=left;verticalAlign=top;rounded=0;entryX=0.5;entryY=1;entryDx=0;entryDy=0;" edge="1" parent="1" target="5d2195bd80daf111-14">
          <mxGeometry x="1" y="18" relative="1" as="geometry">
            <mxPoint x="-1180" y="760" as="sourcePoint" />
            <mxPoint x="-1350" y="699" as="targetPoint" />
            <Array as="points">
              <mxPoint x="-1180" y="760" />
              <mxPoint x="-1180" y="580" />
              <mxPoint x="-1395" y="580" />
            </Array>
            <mxPoint x="1" as="offset" />
          </mxGeometry>
        </mxCell>
      </root>
    </mxGraphModel>
  </diagram>
</mxfile>
